<?xml version="1.0" encoding="UTF-8" standalone="no"?>
<svg
   xmlns:dc="http://purl.org/dc/elements/1.1/"
   xmlns:cc="http://creativecommons.org/ns#"
   xmlns:rdf="http://www.w3.org/1999/02/22-rdf-syntax-ns#"
   xmlns:svg="http://www.w3.org/2000/svg"
   xmlns="http://www.w3.org/2000/svg"
   viewBox="0 0 120.10667 48.493332"
   height="48.493332"
   width="120.10667"
   xml:space="preserve"
   id="svg2"
   version="1.1"><metadata
     id="metadata8"><rdf:RDF><cc:Work
         rdf:about=""><dc:format>image/svg+xml</dc:format><dc:type
           rdf:resource="http://purl.org/dc/dcmitype/StillImage" /></cc:Work></rdf:RDF></metadata><defs
     id="defs6" /><g
     transform="matrix(1.3333333,0,0,-1.3333333,0,48.493333)"
     id="g10"><g
       transform="scale(0.1)"
       id="g12"><path
         id="path14"
         style="fill:#ed1c24;fill-opacity:1;fill-rule:nonzero;stroke:none"
         d="M 623.512,3.73828 674.84,3.73047 674.887,168.844 623.57,168.852 623.512,3.73828 v 0" /><path
         id="path16"
         style="fill:#ed1c24;fill-opacity:1;fill-rule:nonzero;stroke:none"
         d="m 649.586,245.156 c -17.578,0.028 -29.055,-11.808 -29.063,-27.336 0,-15.203 11.141,-27.367 28.36,-27.371 l 0.332,0.004 c 17.898,-0.004 29.062,12.149 29.07,27.34 -0.34,15.535 -11.14,27.363 -28.699,27.363" /><path
         id="path18"
         style="fill:#ed1c24;fill-opacity:1;fill-rule:nonzero;stroke:none"
         d="m 810.191,130.977 v 37.824 l -36.789,0.004 0.012,44.914 -50.332,-13.828 -0.019,-31.067 -21.946,0.004 v -37.82 h 21.953 l -0.027,-67.8713 c -0.012,-23.3008 4.715,-39.164 14.18,-48.957 C 745.648,5.73047 759.508,0 776.031,0 c 14.188,0 26.688,1.99219 33.094,4.36328 l -0.332,38.83982 c -4.715,-1.0156 -8.074,-1.3593 -15.176,-1.3476 -15.215,-0.0117 -20.254,9.1015 -20.254,29.0429 l 0.012,60.0976 36.816,-0.019 v 0" /><path
         id="path20"
         style="fill:#231f20;fill-opacity:1;fill-rule:nonzero;stroke:none"
         d="M 29.0273,245.344 C 11.4648,245.352 0.015625,233.523 0,217.992 -0.00390625,202.793 11.1211,190.625 28.332,190.637 l 0.336,-0.016 c 17.9101,0.008 29.0547,12.16 29.0547,27.352 -0.336,15.543 -11.1446,27.375 -28.6954,27.371" /><path
         id="path22"
         style="fill:#231f20;fill-opacity:1;fill-rule:nonzero;stroke:none"
         d="M 2.97266,3.91797 54.293,3.90625 54.3398,169.02 3.02344,169.023 2.97266,3.91797 v 0" /><path
         id="path24"
         style="fill:#231f20;fill-opacity:1;fill-rule:nonzero;stroke:none"
         d="m 84.5234,68.2891 102.8356,-0.0274 0.004,48.4763 -102.8474,0.02 0.0078,-48.4689 v 0" /><path
         id="path26"
         style="fill:#231f20;fill-opacity:1;fill-rule:nonzero;stroke:none"
         d="m 387.758,243.539 -51.332,0.031 -0.031,-89.5 h -0.688 c -7.422,11.164 -22.949,18.602 -43.551,18.594 -39.5,0.012 -74.285,-32.383 -73.98,-87.7734 0,-51.3281 31.398,-84.753881 70.562,-84.773412 21.266,0 41.535,9.433592 51.66,27.675812 h 1.008 L 343.441,3.81641 389.02,3.80859 c -0.665,11.14061 -1.344,30.37891 -1.332,49.30471 l 0.07,190.4257 z M 336.363,77.0977 c 0.004,-4.0508 -0.332,-8.1055 -1.011,-11.4922 -3.043,-14.5196 -15.2,-24.6485 -30.036,-24.6289 -21.289,-0.0078 -35.14,17.5703 -35.136,45.2539 0.019,25.9885 11.847,46.9215 35.465,46.9145 15.875,-0.008 27.015,-11.141 30.054,-24.993 0.688,-3.035 0.672,-6.414 0.68,-9.4332 l -0.016,-21.6211 v 0" /><path
         id="path28"
         style="fill:#231f20;fill-opacity:1;fill-rule:nonzero;stroke:none"
         d="M 507.828,172.594 C 454.441,172.602 419.32,138.535 419.309,85.1641 419.293,31.8047 456.445,0.0585938 504.73,0.0507813 h 0.344 C 548.961,0.0390625 591.852,27.7227 591.879,87.8125 c 0.012,50.0005 -33.77,84.7695 -84.051,84.7815 M 505.746,36.8555 h -0.332 c -21.609,0 -33.418,21.289 -33.418,49.3047 0.008,24.6678 9.465,49.6288 33.781,49.6288 23.301,0 32.743,-24.98 32.723,-49.3046 -0.02,-29.7266 -12.488,-49.6211 -32.754,-49.6289" /><path
         id="path30"
         style="fill:#231f20;fill-opacity:1;fill-rule:nonzero;stroke:none"
         d="m 193.754,363.656 c -15.926,0.02 -28.836,-12.422 -28.832,-27.793 -0.02,-15.351 12.91,-27.8 28.832,-27.82 15.918,0.02 28.828,12.453 28.84,27.812 0.008,15.364 -12.914,27.813 -28.84,27.801" /><path
         id="path32"
         style="fill:#231f20;fill-opacity:1;fill-rule:nonzero;stroke:none"
         d="m 311.254,299.156 c 15.926,0 28.844,12.434 28.851,27.817 -0.003,15.336 -12.917,27.8 -28.839,27.82 -15.95,-0.012 -28.856,-12.441 -28.848,-27.805 0,-15.371 12.898,-27.808 28.836,-27.832" /><path
         id="path34"
         style="fill:#231f20;fill-opacity:1;fill-rule:nonzero;stroke:none"
         d="m 455.703,298.141 c 0.004,15.375 -12.906,27.816 -28.824,27.836 -15.938,-0.016 -28.871,-12.465 -28.852,-27.832 -0.019,-15.368 12.887,-27.829 28.825,-27.825 15.941,-0.004 28.839,12.438 28.851,27.821" /><path
         id="path36"
         style="fill:#231f20;fill-opacity:1;fill-rule:nonzero;stroke:none"
         d="m 539.164,233.871 c 15.93,-0.016 28.867,12.438 28.867,27.774 0.012,15.394 -12.91,27.835 -28.847,27.828 -15.938,0.019 -28.848,-12.422 -28.856,-27.785 0.008,-15.356 12.91,-27.825 28.836,-27.817" /><path
         id="path38"
         style="fill:#231f20;fill-opacity:1;fill-rule:nonzero;stroke:none"
         d="m 122.945,295.977 c -0.011,15.367 -12.918,27.82 -28.8395,27.82 C 78.1836,323.797 65.25,311.355 65.25,296 c 0.0078,-15.359 12.8945,-27.809 28.832,-27.812 15.934,-0.02 28.84,12.425 28.863,27.789" /><path
         id="path40"
         style="fill:#231f20;fill-opacity:1;fill-rule:nonzero;stroke:none"
         d="m 870.973,266.336 h -2.09 v -5.953 h 2.012 c 2.937,0 3.867,0.926 3.867,2.937 0,2.168 -1.242,3.016 -3.789,3.016 z m 5.164,-23.445 c -1.387,2.25 -1.856,3.101 -3.086,5.035 -2.715,4.793 -3.563,6.113 -4.18,6.652 l -0.008,-11.683 -7.5,0.003 0.02,29.559 11.836,-0.008 c 5.801,-0.004 9.511,-3.644 9.511,-9.062 0,-4.407 -2.949,-7.657 -6.816,-8.039 1.777,-0.696 2.859,-2.477 3.945,-4.024 2.09,-3.25 5.176,-8.437 5.176,-8.437 z m 16.797,14.148 c 0.011,11.988 -9.344,21.824 -20.868,21.832 -11.535,0.004 -20.898,-9.812 -20.91,-21.801 0,-11.992 9.348,-21.828 20.879,-21.832 11.524,-0.008 20.899,9.813 20.899,21.801 z m 7.89,-0.004 c -0.008,-15.859 -12.929,-28.769 -28.789,-28.758 -15.859,0.008 -28.777,12.938 -28.769,28.797 0.011,15.86 12.941,28.77 28.8,28.762 15.86,-0.012 28.77,-12.941 28.758,-28.801" /></g></g></svg>