<svg width="16" height="16" viewBox="0 0 16 16" fill="none" xmlns="http://www.w3.org/2000/svg">
<g clip-path="url(#clip0_2510_59)">
<path fill-rule="evenodd" clip-rule="evenodd" d="M4.53845 0.720088C3.89845 0.912966 3.57041 2.03517 3.48639 2.57216L3.6179 2.75298H5.55216C5.58869 2.8918 5.65408 3.24614 5.6234 3.55299C5.32104 4.55076 5.04933 5.32295 4.79015 6.00747C7.69283 6.15835 9.99998 8.55971 9.99998 11.4999C9.99998 11.7465 9.98376 11.9892 9.95233 12.2271C11.2061 12.2438 12.3328 12.2529 12.9166 12.2435C14.3501 11.8709 14.9093 9.95488 15.0098 9.04346H11.7003C11.7156 8.99859 11.7577 8.85121 11.8536 8.48455C12.0322 8.02625 12.3747 7.32295 12.757 6.53785C13.3483 5.32355 14.0349 3.91358 14.3577 2.91189C14.3358 0.965569 12.449 0.442459 11.5084 0.424194H6.70286C6.20057 0.442459 5.06449 0.527209 4.53845 0.720088Z" fill="white"/>
<path fill-rule="evenodd" clip-rule="evenodd" d="M5.4813 0.900645C6.53125 0.860262 9.58094 0.879386 11.2763 0.89701C11.0023 1.21469 10.723 1.61718 10.4842 2.25391C10.4695 2.29318 10.4596 2.33016 10.4532 2.35549L10.4485 2.37437C10.1049 2.37381 9.14654 2.37652 8.01182 2.38043H5.4847L5.48247 2.38987L3.93047 2.39618C3.99693 2.17454 4.11961 1.8607 4.31983 1.57706C4.58027 1.20809 4.94595 0.921235 5.4813 0.900645ZM5.26819 3.26746L3.76765 3.27359L3.76673 3.27359H3.76581L3.75554 3.27369H3.75554H3.75553C3.72869 3.274 3.6657 3.27473 3.60852 3.26985C3.53887 3.2639 3.42354 3.24701 3.30834 3.18086C3.17797 3.106 3.07518 2.98359 3.02808 2.82188C2.98577 2.67658 2.99681 2.52904 3.02485 2.39818C3.08153 2.13367 3.24556 1.57865 3.60357 1.07147C3.96779 0.555489 4.55829 0.0587763 5.44761 0.0245717C6.60102 -0.0197902 10.054 0.00592766 11.6324 0.0241335L11.6507 0.0245543L11.6507 0.0245455C12.7749 0.0664052 13.5507 0.439885 14.0505 0.994514C14.5416 1.53952 14.7196 2.20787 14.7567 2.76207L14.7587 2.79125L14.7568 2.82044C14.6673 4.16721 14.2925 4.82075 13.6942 5.8639L13.6942 5.86391L13.6942 5.86392L13.6939 5.86443C13.6169 5.99869 13.5362 6.13941 13.4519 6.2889L13.4503 6.29171L13.4139 6.35409C12.8232 7.36665 12.5395 7.85283 12.3342 8.53939H14.7797C14.962 8.51906 15.1722 8.58245 15.3217 8.76765C15.4746 8.95714 15.5127 9.21037 15.4966 9.47057C15.4794 9.74805 15.4254 10.4352 15.0763 11.092C14.7136 11.7742 14.0403 12.4051 12.8554 12.5367C12.8394 12.5385 12.8233 12.5397 12.8073 12.5403L12.807 12.5449H9.90087C9.95569 12.2599 9.9885 11.967 9.99748 11.6682H11.601L11.5967 11.6606C11.2549 11.061 11.074 10.1595 11.3133 8.89619L11.3808 8.53939H11.4243C11.6678 7.60678 11.993 7.04954 12.6351 5.94916L12.6351 5.94914L12.6898 5.85552C12.7763 5.70202 12.8575 5.56004 12.9335 5.42705C13.5209 4.39987 13.8014 3.90925 13.8799 2.79225C13.8473 2.37381 13.7119 1.92851 13.3992 1.58139C13.1789 1.33699 12.8473 1.11506 12.3404 0.993833C12.3006 1.08161 12.2455 1.15851 12.1875 1.22418C12.1592 1.25617 12.1306 1.28823 12.1018 1.32046L12.101 1.32136L12.1009 1.32148L12.1005 1.32194C11.8866 1.56154 11.664 1.81089 11.5014 2.11553C11.4795 2.158 11.4578 2.20217 11.4363 2.24821C11.3763 2.38167 11.3284 2.52579 11.2975 2.68384L11.2915 2.7143L11.2813 2.74362C11.2493 2.83559 11.1913 2.96648 11.0808 3.07514C10.9609 3.19312 10.7906 3.27147 10.5901 3.25715H8.013C7.42763 3.25918 6.79449 3.26152 6.17404 3.26391C6.06381 3.70186 5.90967 4.27081 5.73397 4.84138C5.60681 5.25431 5.46496 5.67951 5.31692 6.06025C5.05037 6.02057 4.77759 6 4.5 6C4.46492 6 4.42992 6.00033 4.395 6.00098C4.56245 5.60725 4.73567 5.10425 4.89607 4.58336C5.03902 4.11916 5.16747 3.65525 5.26819 3.26746ZM12.6518 11.5492C12.7235 11.6114 12.781 11.6429 12.8176 11.6582C13.6431 11.5494 14.0649 11.1267 14.3021 10.6805C14.5585 10.1982 14.6058 9.67048 14.6215 9.41645L14.6216 9.41611H12.1337C12.0203 10.1794 12.1422 10.7346 12.3212 11.1C12.4232 11.3082 12.5437 11.4555 12.6518 11.5492ZM11.5414 0.606111L11.5406 0.607193L11.5412 0.606415C11.5413 0.606213 11.5414 0.606111 11.5414 0.606111ZM3.67948 2.39587L3.68227 2.39623C3.68033 2.39605 3.67944 2.3959 3.67948 2.39587ZM3.87672 2.61626L3.87671 2.61683C3.87671 2.61683 3.87671 2.61664 3.87672 2.61626Z" fill="#171E24"/>
<path fill-rule="evenodd" clip-rule="evenodd" d="M11.9206 5.54213H6.41919V4.66541H11.9206V5.54213Z" fill="#787979"/>
<path fill-rule="evenodd" clip-rule="evenodd" d="M8.10988 7.35035H11.2193V6.47363H6.73621C7.2383 6.69735 7.70069 6.99409 8.10988 7.35035Z" fill="#787979"/>
<path fill-rule="evenodd" clip-rule="evenodd" d="M8.96069 8.28186C9.15894 8.55617 9.3325 8.8495 9.47813 9.15858H10.6384V8.28186H8.96069Z" fill="#787979"/>
<path d="M5.73719 15C5.65941 15 5.58629 14.9556 5.54739 14.884L5.20202 14.2556C4.97411 14.3206 4.73842 14.3526 4.50039 14.3526C4.26314 14.3526 4.02823 14.3197 3.80031 14.2556L3.4775 14.8774C3.43938 14.9515 3.36549 14.9984 3.28537 14.9984C3.24725 14.9984 3.20991 14.9877 3.17646 14.9671L2.34259 14.4579C2.23992 14.3946 2.20336 14.2589 2.26014 14.1486L2.5884 13.5161C2.24925 13.1583 2.00733 12.7157 1.88443 12.228H1.2178C1.09723 12.228 1 12.1243 1 11.9977V10.9777C1 10.8502 1.09801 10.7474 1.2178 10.7474H1.88521C2.00811 10.2604 2.24925 9.81786 2.5884 9.46005L2.26325 8.85382C2.20569 8.74442 2.24225 8.60458 2.34493 8.54207L3.17802 8.03208C3.21147 8.01152 3.24881 8.00082 3.28692 8.00082C3.36626 8.00082 3.4386 8.04606 3.4775 8.11927L3.79953 8.71892C4.02745 8.65476 4.26236 8.62186 4.50039 8.62186C4.73842 8.62186 4.97489 8.65476 5.2028 8.71974L5.54739 8.11351C5.58629 8.0436 5.65863 8 5.73564 8C5.77375 8 5.81109 8.01069 5.84454 8.03126L6.67141 8.53713C6.70486 8.5577 6.73597 8.58484 6.75542 8.62021C6.79742 8.69671 6.79664 8.78555 6.75697 8.85711L6.41316 9.46169C6.75153 9.81951 6.99267 10.2612 7.11479 10.7482H7.7822C7.90277 10.7482 8 10.8518 8 10.9785V11.9977C8 12.1251 7.90199 12.228 7.7822 12.228H7.11479C6.99267 12.7149 6.75075 13.1575 6.41238 13.5145L6.75931 14.1454C6.81842 14.2556 6.78264 14.3962 6.67919 14.4596L5.84532 14.9696C5.81265 14.9893 5.77531 15 5.73719 15ZM4.50039 10.4957C3.96288 10.4957 3.52573 10.9579 3.52573 11.5263C3.52573 12.0947 3.96288 12.557 4.50039 12.557C5.03789 12.557 5.47505 12.0947 5.47505 11.5263C5.47505 10.9579 5.03789 10.4957 4.50039 10.4957Z" fill="#D9EDF9" stroke="#0964B0" stroke-width="0.75" stroke-miterlimit="1"/>
</g>
<defs>
<clipPath id="clip0_2510_59">
<rect width="16" height="16" fill="white"/>
</clipPath>
</defs>
</svg>
