<svg width="16" height="16" viewBox="0 0 16 16" fill="none" xmlns="http://www.w3.org/2000/svg">
<g clip-path="url(#clip0_1442_75165)">
<path d="M1.68408 5.05268V7.579H5.89461M8.42092 2.52637V5.89479M3.36829 14.3158H8.42092V10.9474M10.9472 9.26321H12.6315H14.3157V5.05268M10.1338 10.9474H6.70808C6.2584 10.9474 5.89461 10.5836 5.89461 10.1339V6.70995C5.89461 6.26026 6.2584 5.89647 6.70808 5.89647H10.1321C10.5818 5.89647 10.9456 6.26026 10.9456 6.70995V10.1339C10.9472 10.5836 10.5835 10.9474 10.1338 10.9474Z" stroke="#383838" stroke-miterlimit="1"/>
<path d="M3.36842 4.21053C3.36842 5.14021 2.61389 5.89474 1.68421 5.89474C0.754526 5.89474 0 5.14021 0 4.21053C0 3.28084 0.754526 2.52632 1.68421 2.52632C2.61389 2.52632 3.36842 3.28084 3.36842 4.21053ZM8.42105 0C7.49137 0 6.73684 0.754526 6.73684 1.68421C6.73684 2.61389 7.49137 3.36842 8.42105 3.36842C9.35074 3.36842 10.1053 2.61389 10.1053 1.68421C10.1053 0.754526 9.35074 0 8.42105 0ZM14.3158 3.36842C13.3861 3.36842 12.6316 4.12295 12.6316 5.05263C12.6316 5.98232 13.3861 6.73684 14.3158 6.73684C15.2455 6.73684 16 5.98232 16 5.05263C16 4.12295 15.2455 3.36842 14.3158 3.36842ZM3.36842 12.6316C2.43874 12.6316 1.68421 13.3861 1.68421 14.3158C1.68421 15.2455 2.43874 16 3.36842 16C4.29811 16 5.05263 15.2455 5.05263 14.3158C5.05263 13.3861 4.29811 12.6316 3.36842 12.6316Z" fill="#E42D2C"/>
</g>
<defs>
<clipPath id="clip0_1442_75165">
<rect width="16" height="16" fill="white"/>
</clipPath>
</defs>
</svg>
