<svg width="16" height="16" viewBox="0 0 16 16" fill="none" xmlns="http://www.w3.org/2000/svg">
<g clip-path="url(#clip0_1442_74659)">
<path d="M11.627 0.214986C11.395 0.0259863 11.093 -0.0490137 10.798 0.0119863C10.336 0.105986 10 0.528986 10 1.01699V4.99999H12V1.00499C12 0.695986 11.864 0.407986 11.627 0.214986Z" fill="#E3000F"/>
<path d="M5.627 0.214986C5.395 0.0259863 5.093 -0.0490137 4.798 0.0119863C4.336 0.105986 4 0.528986 4 1.01699V4.99999H6V1.00499C6 0.695986 5.864 0.407986 5.627 0.214986Z" fill="#E3000F"/>
<path d="M0.500977 14.751C0.500977 11.82 2.87998 12.482 4.28498 14.195C5.95798 16.235 7.99898 16.099 7.99898 12.241" stroke="#8B8B8B" stroke-miterlimit="1"/>
<path d="M7.949 12.2C5.492 12.2 3.5 10.208 3.5 7.751V4.5H12.5V7.649C12.5 10.152 10.452 12.2 7.949 12.2Z" fill="white" stroke="#383838" stroke-miterlimit="1"/>
<path d="M8.58691 10.23C9.75791 10.23 10.7069 9.28204 10.7069 8.11304" stroke="#787979" stroke-miterlimit="1"/>
</g>
<defs>
<clipPath id="clip0_1442_74659">
<rect width="16" height="16" fill="white"/>
</clipPath>
</defs>
</svg>
