<svg width="16" height="16" viewBox="0 0 16 16" fill="none" xmlns="http://www.w3.org/2000/svg">
<path d="M15.5 2.5H0.5V14.5H15.5V2.5Z" fill="white"/>
<path d="M16 15H0V2H16V15ZM1 14H15V3H1V14Z" fill="#212121"/>
<path d="M9.25 0.5C8.56 0.5 8 1.06 8 1.75C8 1.06 7.44 0.5 6.75 0.5H2.5V12.5C2.5 12.5 6.05 12.5 6.75 12.5C7.45 12.5 8 13.25 8 13.95C8 13.25 8.55 12.5 9.25 12.5C9.95 12.5 13.5 12.5 13.5 12.5V0.5H9.25Z" fill="white"/>
<path d="M9.25 0C8.761 0 8.318 0.203 8 0.528C7.682 0.203 7.239 0 6.75 0H2V13H6.75C7.154 13 7.5 13.522 7.5 13.95V13.994H8.5V13.95C8.5 13.522 8.846 13 9.25 13H14V0H9.25ZM13 12H9.25C8.975 12 8.723 12.073 8.5 12.197V11.8H7.5V12.197C7.277 12.073 7.025 12 6.75 12H3V1H6.75C7.164 1 7.5 1.336 7.5 1.75V2H8.5V1.75C8.5 1.336 8.836 1 9.25 1H13V12Z" fill="#212121"/>
<rect x="4" y="4" width="8" height="1" fill="#E3000F"/>
<rect x="4" y="6" width="8" height="1" fill="#E3000F"/>
<rect x="4" y="8" width="8" height="1" fill="#E3000F"/>
</svg>
