<svg width="16" height="16" viewBox="0 0 16 16" fill="none" xmlns="http://www.w3.org/2000/svg">
<path d="M4.4635 4.33333H10.5365C10.7924 4.33333 11 4.12567 11 3.86978V2.46356C10.9992 2.20767 10.7916 2 10.5357 2H4.4635C4.20764 2 4 2.20767 4 2.46356V3.87056C4 4.12567 4.20764 4.33333 4.4635 4.33333Z" fill="#E6E7E7" stroke="#383838" stroke-miterlimit="1" stroke-linecap="round"/>
<path d="M8.4635 13.0001H14.5365C14.7924 13.0001 15 12.7925 15 12.5367V11.1301C15 10.8743 14.7924 10.6667 14.5365 10.6667H8.4635C8.20764 10.6667 8 10.8743 8 11.1301V12.5367C8 12.7925 8.20764 13.0001 8.4635 13.0001Z" fill="#F3B8B8" stroke="#E42D2C" stroke-miterlimit="1" stroke-linecap="round"/>
<path d="M6.4635 8.66671H12.5365C12.7924 8.66671 13 8.45904 13 8.20315V6.79693C13 6.54104 12.7924 6.33337 12.5365 6.33337H6.4635C6.20764 6.33337 6 6.54104 6 6.79693V8.20393C6 8.45904 6.20764 8.66671 6.4635 8.66671Z" fill="white" stroke="#383838" stroke-miterlimit="1"/>
<path d="M4.6 7.77944H2.21395C1.54335 7.77944 1 7.22342 1 6.53717M2.78828 9.6L4.6 7.75716L2.872 6" stroke="#383838" stroke-width="0.8" stroke-miterlimit="1"/>
<path d="M6.6 12.7794H4.21395C3.54335 12.7794 3 12.2234 3 11.5372M4.78828 14.6L6.6 12.7572L4.872 11" stroke="#383838" stroke-width="0.8" stroke-miterlimit="1"/>
</svg>
