<?xml version="1.0" encoding="UTF-8"?>
<svg version="1.1" xmlns="http://www.w3.org/2000/svg" width="123" height="150">
<path d="M0 0 C2.5470813 2.5063642 4.95920604 5.06044579 7 8 C7 8.66 7 9.32 7 10 C7.66 10.33 8.32 10.66 9 11 C9 11.99 9 12.98 9 14 C9.66 14.33 10.32 14.66 11 15 C11 15.99 11 16.98 11 18 C11.66 18.33 12.32 18.66 13 19 C13.68659493 21.60119665 14.23031046 24.10641208 14.6875 26.75 C14.88811035 27.89287476 14.88811035 27.89287476 15.09277344 29.05883789 C16.1979177 35.99644625 17.23672926 44.52654149 14 51 C13.34 51 12.68 51 12 51 C12.33 52.32 12.66 53.64 13 55 C11.515 55.495 11.515 55.495 10 56 C9.938125 57.051875 9.87625 58.10375 9.8125 59.1875 C8.82317394 63.82972228 7.57975033 64.95340398 4 68 C2.60167676 69.20545106 1.20597292 70.41394535 -0.1875 71.625 C-0.86167969 72.19476563 -1.53585938 72.76453125 -2.23046875 73.3515625 C-4.21611689 75.07423737 -4.21611689 75.07423737 -6 78 C-19.04937144 84.2980217 -32.5531297 88.22215389 -47 85 C-47 84.34 -47 83.68 -47 83 C-47.721875 83.061875 -48.44375 83.12375 -49.1875 83.1875 C-52.58354843 82.96109677 -54.17091092 81.8389079 -57 80 C-57.825 79.71125 -58.65 79.4225 -59.5 79.125 C-63.89288969 77.14819964 -66.63492511 73.47399889 -69.625 69.8125 C-71.87722335 66.88119654 -71.87722335 66.88119654 -75 65 C-74.505 64.01 -74.505 64.01 -74 63 C-74.99 62.67 -75.98 62.34 -77 62 C-78.09765625 59.63671875 -78.09765625 59.63671875 -79.0625 56.6875 C-80.18626867 53.30716773 -81.36003792 50.16128861 -83 47 C-86.01836286 37.34123885 -82.94867761 22.79284513 -78.45703125 13.96875 C-76.74416632 11.21606641 -74.93202172 8.60257156 -73 6 C-72.56042969 5.35417969 -72.12085938 4.70835938 -71.66796875 4.04296875 C-64.72010199 -5.25583782 -53.03827505 -10.11870158 -42.0625 -12.6875 C-25.9646337 -14.33013942 -12.60787052 -10.04658659 0 0 Z " fill="#F8BF00" transform="translate(96,58)"/>
<path d="M0 0 C4.54260906 3.15407876 7.81549131 6.88627807 8.9296875 12.33984375 C8.99895718 15.09954783 9.0238611 17.83180417 8.9921875 20.58984375 C8.98767578 21.33492187 8.98316406 22.08 8.97851562 22.84765625 C8.96677996 24.67842015 8.948846 26.50914248 8.9296875 28.33984375 C9.88875 28.55640625 9.88875 28.55640625 10.8671875 28.77734375 C12.9296875 29.33984375 12.9296875 29.33984375 13.9296875 30.33984375 C14.01726753 32.33949357 14.03665326 34.34220485 14.02734375 36.34375 C14.02412109 37.55869141 14.02089844 38.77363281 14.01757812 40.02539062 C14.00500977 41.94448242 14.00500977 41.94448242 13.9921875 43.90234375 C13.98767578 45.18560547 13.98316406 46.46886719 13.97851562 47.79101562 C13.96668295 50.97400397 13.95019818 54.15690137 13.9296875 57.33984375 C5.9085298 61.47968187 -0.97493892 62.70853947 -9.8828125 62.65234375 C-10.75921387 62.64960449 -11.63561523 62.64686523 -12.53857422 62.64404297 C-28.01541624 62.39474001 -28.01541624 62.39474001 -33.0703125 57.33984375 C-33.29736328 54.54248047 -33.29736328 54.54248047 -33.265625 51.01953125 C-33.25917969 49.76269531 -33.25273438 48.50585938 -33.24609375 47.2109375 C-33.22933594 45.89222656 -33.21257813 44.57351562 -33.1953125 43.21484375 C-33.18528233 41.87500654 -33.17615654 40.53516223 -33.16796875 39.1953125 C-33.14433325 35.90997802 -33.11138484 32.6249991 -33.0703125 29.33984375 C-31.7503125 29.00984375 -30.4303125 28.67984375 -29.0703125 28.33984375 C-29.12832031 27.28925781 -29.18632813 26.23867187 -29.24609375 25.15625 C-29.84130605 9.87549394 -29.84130605 9.87549394 -24.0703125 3.33984375 C-16.91638963 -3.25517889 -8.64430987 -4.7257803 0 0 Z " fill="#050400" transform="translate(71.0703125,63.66015625)"/>
<path d="M0 0 C2.97 0 5.94 0 9 0 C9.04898438 0.71027344 9.09796875 1.42054687 9.1484375 2.15234375 C9.22320312 3.07144531 9.29796875 3.99054687 9.375 4.9375 C9.44460937 5.85402344 9.51421875 6.77054688 9.5859375 7.71484375 C9.72257812 8.46894531 9.85921875 9.22304688 10 10 C10.66 10.33 11.32 10.66 12 11 C12.33 11.66 12.66 12.32 13 13 C14.88695626 8.71146306 16.58192622 4.47238653 18 0 C20.97 0 23.94 0 27 0 C27 8.58 27 17.16 27 26 C24.69 26.33 22.38 26.66 20 27 C18.79727181 24.59454362 18.89928528 23.05003047 18.9375 20.375 C18.94652344 19.55773437 18.95554687 18.74046875 18.96484375 17.8984375 C18.97644531 17.27195312 18.98804687 16.64546875 19 16 C18.82984375 16.71027344 18.6596875 17.42054687 18.484375 18.15234375 C18.24203125 19.07144531 17.9996875 19.99054687 17.75 20.9375 C17.51796875 21.85402344 17.2859375 22.77054688 17.046875 23.71484375 C16 26 16 26 14.0234375 26.90625 C12 27 12 27 9.875 25.5625 C7.35661185 22.12070286 6.83405817 19.17029084 6 15 C5.67 18.3 5.34 21.6 5 25 C3.68 25.33 2.36 25.66 1 26 C-1.27492349 22.58761477 -1.19555565 21.63955735 -0.9765625 17.67578125 C-0.925 16.64775391 -0.8734375 15.61972656 -0.8203125 14.56054688 C-0.75585938 13.48869141 -0.69140625 12.41683594 -0.625 11.3125 C-0.53992187 9.68731445 -0.53992187 9.68731445 -0.453125 8.02929688 C-0.31160446 5.35219993 -0.16018849 2.67603424 0 0 Z M5 11 C6 13 6 13 6 13 Z M19 12 C20 14 20 14 20 14 Z M12 15 C13 17 13 17 13 17 Z " fill="#0F0C00" transform="translate(54,8)"/>
<path d="M0 0 C3.55605455 1.74447959 5.50667717 3.34223622 7.875 6.5 C9 10 9 10 9 22 C0.75 21.67 -7.5 21.34 -16 21 C-16.80357143 8.00892857 -16.80357143 8.00892857 -13.125 3.75 C-9.15902303 -0.12018043 -5.47273903 -0.72358375 0 0 Z " fill="#F2BB00" transform="translate(65,68)"/>
<path d="M0 0 C1.7734375 1.5234375 1.7734375 1.5234375 3 3 C2.01 3.495 2.01 3.495 1 4 C1.33 4.99 1.66 5.98 2 7 C0.88625 6.79375 -0.2275 6.5875 -1.375 6.375 C-2.57125 6.25125 -3.7675 6.1275 -5 6 C-5.66 6.66 -6.32 7.32 -7 8 C-6.28972656 8.39832031 -5.57945313 8.79664063 -4.84765625 9.20703125 C-3.46900391 10.00173828 -3.46900391 10.00173828 -2.0625 10.8125 C-1.14597656 11.33457031 -0.22945312 11.85664063 0.71484375 12.39453125 C3 14 3 14 4 17 C4.0625 20 4.0625 20 3 23 C-0.83875404 25.6642099 -4.864801 26.25349213 -9.4375 25.75 C-13 25 -13 25 -14 24 C-14.04080783 22.00041636 -14.04254356 19.99954746 -14 18 C-10.7 18.66 -7.4 19.32 -4 20 C-5.97892745 15.88359674 -5.97892745 15.88359674 -9.5 13.9375 C-12.45895159 12.4768311 -13.04036843 11.93944735 -15 9 C-14.9375 6 -14.9375 6 -14 3 C-10.15486228 -0.60481662 -5.04026453 -0.96274716 0 0 Z " fill="#161100" transform="translate(98,8)"/>
<path d="M0 0 C2 1 2 1 2.6875 2.9375 C3 5 3 5 2 7 C0.88625 6.79375 -0.2275 6.5875 -1.375 6.375 C-2.57125 6.25125 -3.7675 6.1275 -5 6 C-5.66 6.66 -6.32 7.32 -7 8 C-6.44570313 8.30292969 -5.89140625 8.60585938 -5.3203125 8.91796875 C0.59777435 12.34034994 0.59777435 12.34034994 2.5625 15.5625 C3.17527416 18.97652744 2.52277068 20.95445864 1 24 C-4.07247214 26.35065782 -7.66415319 25.9948189 -13 25 C-14 24 -14 24 -14.0625 20.9375 C-14.041875 19.968125 -14.02125 18.99875 -14 18 C-10.7 18.66 -7.4 19.32 -4 20 C-5.97892745 15.88359674 -5.97892745 15.88359674 -9.5 13.9375 C-12.45895159 12.4768311 -13.04036843 11.93944735 -15 9 C-14.9375 6 -14.9375 6 -14 3 C-9.98923654 -0.76009074 -5.20324277 -0.53156901 0 0 Z " fill="#100C00" transform="translate(48,8)"/>
<path d="M0 0 C2.31 0 4.62 0 7 0 C8.49691436 4.49074307 8.03835266 8.80675233 7.875 13.5 C7.8646875 14.46292969 7.854375 15.42585938 7.84375 16.41796875 C7.74848921 19.04496811 7.61606259 21.44362813 7 24 C4.4453125 26.15625 4.4453125 26.15625 2 27 C-0.06907517 25.32015679 -0.92698302 24.45490581 -1.35644531 21.77929688 C-1.34709961 20.93431641 -1.33775391 20.08933594 -1.328125 19.21875 C-1.32296875 18.29449219 -1.3178125 17.37023437 -1.3125 16.41796875 C-1.291875 15.45503906 -1.27125 14.49210937 -1.25 13.5 C-1.24484375 12.53707031 -1.2396875 11.57414062 -1.234375 10.58203125 C-1.15496483 3.46489448 -1.15496483 3.46489448 0 0 Z " fill="#322600" transform="translate(24,8)"/>
<path d="M0 0 C3.125 0.375 3.125 0.375 6 1 C6.38063221 3.3260857 6.71269945 5.66055264 7 8 C6.67 8.33 6.34 8.66 6 9 C5.76636119 10.84891946 5.58696365 12.70488031 5.4375 14.5625 C5.35371094 15.57441406 5.26992187 16.58632812 5.18359375 17.62890625 C5.12300781 18.41136719 5.06242187 19.19382812 5 20 C3.0625 20.5625 3.0625 20.5625 1 21 C-0.99977858 19.00022142 -0.43532807 15.15670096 -0.62109375 12.4453125 C-0.8632494 9.74931222 -0.8632494 9.74931222 -3 7 C-2.6758631 3.67759676 -2.39223697 2.39223697 0 0 Z " fill="#EEB800" transform="translate(59,97)"/>
<path d="" fill="#CD9D00" transform="translate(0,0)"/>
<path d="" fill="#CD9D00" transform="translate(0,0)"/>
<path d="" fill="#CD9D00" transform="translate(0,0)"/>
<path d="" fill="#CD9D00" transform="translate(0,0)"/>
<path d="" fill="#CD9D00" transform="translate(0,0)"/>
</svg>
