<?xml version="1.0" encoding="UTF-8"?>
<svg version="1.1" xmlns="http://www.w3.org/2000/svg" width="499" height="200">
<path d="M0 0 C64.17057664 -0.81228578 64.17057664 -0.81228578 86.90966797 20.90307617 C88.28574001 22.25599206 89.64355488 23.62740672 91 25 C91.61875 25.6084375 92.2375 26.216875 92.875 26.84375 C106.96263113 41.81185808 109.53382389 65.68077531 109.18359375 85.35546875 C107.98333011 109.18197898 99.72002388 129.15337026 82.25 145.6875 C61.48109191 163.63157979 36.97757647 167.19571954 10.57177734 167.13037109 C8.0334662 167.12506989 5.4953366 167.13031013 2.95703125 167.13671875 C-8.06020794 167.1407291 -19.00747871 166.72852006 -30 166 C-30 165.34 -30 164.68 -30 164 C-28.35546875 162.59765625 -28.35546875 162.59765625 -26.1875 161.0625 C-24.08132929 159.56247678 -22.16296959 158.16841488 -20.36328125 156.30859375 C-19 155 -19 155 -17 155 C-16.773125 154.484375 -16.54625 153.96875 -16.3125 153.4375 C-15 151 -15 151 -12.625 147.8125 C-10.62087739 145.07722327 -9.17738073 142.37557952 -7.8359375 139.26171875 C-7.48837402 138.46080811 -7.14081055 137.65989746 -6.78271484 136.8347168 C-6.52441895 136.22926025 -6.26612305 135.62380371 -6 135 C-4.64805542 134.97812622 -4.64805542 134.97812622 -3.26879883 134.95581055 C0.14044329 134.89401489 3.54897448 134.81973806 6.95776367 134.73754883 C8.42087906 134.70470763 9.88410878 134.6765552 11.34741211 134.65356445 C22.89837768 134.46732247 34.81251863 134.03505483 45.0625 128.0625 C46.34833984 127.33740234 46.34833984 127.33740234 47.66015625 126.59765625 C50.09250045 125.04375599 50.09250045 125.04375599 52.18359375 122.80859375 C54 121 54 121 56 121 C56.26941406 120.45472656 56.53882813 119.90945312 56.81640625 119.34765625 C57.65799558 117.6783652 58.52248016 116.02053162 59.40234375 114.37109375 C67.97927704 97.98107618 70.41854495 80.48485412 64.9609375 62.59375 C60.5557679 51.33925219 53.83300917 42.4369326 42.5546875 37.48828125 C32.31552431 33.69479085 22.8902706 32.81343986 12.0625 32.4375 C8.081875 32.293125 4.10125 32.14875 0 32 C0 21.44 0 10.88 0 0 Z " fill="#00145B" transform="translate(101,17)"/>
<path d="M0 0 C0 9.24 0 18.48 0 28 C-4.90289084 27.01942183 -9.35326337 25.57131679 -14.0625 23.9375 C-19.3674501 22.24443082 -24.32196401 21.79151803 -29.875 21.75 C-30.55691406 21.729375 -31.23882812 21.70875 -31.94140625 21.6875 C-37.00193689 21.64894358 -40.50917068 22.63398762 -45 25 C-46.44430855 27.88861709 -46.37688506 29.79647701 -46 33 C-41.76930049 38.70545315 -35.83777582 40.24935642 -29.3125 42.5 C-2.31008572 51.98688174 -2.31008572 51.98688174 3.9375 64.25 C7.99054607 73.09800567 8.49637604 82.54150645 5.4375 91.875 C1.3919785 101.54166717 -6.702975 108.56486226 -16 113.125 C-36.86628602 121.55653832 -58.77162987 121.16451118 -80 114 C-81.32 113.34 -82.64 112.68 -84 112 C-84 102.1 -84 92.2 -84 82 C-81.38938926 83.0442443 -78.78074694 84.09554044 -76.203125 85.21875 C-75.22859375 85.6415625 -74.2540625 86.064375 -73.25 86.5 C-72.28578125 86.9228125 -71.3215625 87.345625 -70.328125 87.78125 C-63.04143055 90.44961698 -56.10703075 91.34367754 -48.375 91.3125 C-47.16457031 91.33666992 -47.16457031 91.33666992 -45.9296875 91.36132812 C-40.54179152 91.36570142 -36.74688828 90.60529729 -32 88 C-29.75940062 85.13481582 -29.75940062 85.13481582 -29.625 81.6875 C-31.23914741 77.35865012 -32.03082896 77.00364383 -36 74.9375 C-41.79329592 72.33431459 -47.7551683 70.29316754 -53.76489258 68.25195312 C-65.0898247 64.33861242 -75.33511933 59.30432497 -80.96484375 48.31640625 C-84.82912788 39.66915912 -85.38327727 30.41461695 -82.4375 21.375 C-78.30242887 11.29576411 -71.79448507 4.7432412 -62 0 C-42.71833345 -6.93297081 -19.25846608 -7.70338643 0 0 Z " fill="#00145B" transform="translate(374,66)"/>
<path d="M0 0 C12.54 0 25.08 0 38 0 C38.04532106 13.8396587 38.08195652 27.67926749 38.10362434 41.51898384 C38.11402776 47.94644062 38.12812369 54.37384367 38.15087891 60.80126953 C38.17273052 67.01287229 38.18459447 73.2244236 38.18975449 79.43606186 C38.19342823 81.79692265 38.20060167 84.15778086 38.21146011 86.51861954 C38.31624427 110.26135608 37.58849091 134.6397271 20.23828125 152.9375 C11.6480508 160.85310502 1.98751625 163.95071223 -9 167 C-9.99 167.33 -10.98 167.66 -12 168 C-14.93299355 168.20449158 -17.81420815 168.32382138 -20.75 168.375 C-21.90048828 168.43107422 -21.90048828 168.43107422 -23.07421875 168.48828125 C-31.92309118 168.61735718 -36.70273033 166.09908989 -46 163 C-46 151.12 -46 139.24 -46 127 C-40.555 129.475 -40.555 129.475 -35 132 C-27.30653704 133.92336574 -19.1370725 134.19565403 -11.96875 130.4296875 C-4.95039643 125.33302598 -3.05577725 117.84346478 -1.60897827 109.66671753 C-0.18505831 100.06362849 -0.51484423 90.24951519 -0.48828125 80.56640625 C-0.47140478 78.23370945 -0.45325063 75.90102157 -0.43388367 73.56834412 C-0.38669979 67.47759798 -0.35668685 61.38688806 -0.33044434 55.29602051 C-0.30047809 49.06120657 -0.25400355 42.82651707 -0.20898438 36.59179688 C-0.12331143 24.3945826 -0.05733608 12.19738043 0 0 Z " fill="#FF860B" transform="translate(55,17)"/>
<path d="M0 0 C1.17691406 -0.01224609 2.35382813 -0.02449219 3.56640625 -0.03710938 C13.74584592 -0.05409398 21.35811975 1.16240846 30.75 5.1875 C30.75 15.7475 30.75 26.3075 30.75 37.1875 C26.46 35.2075 22.17 33.2275 17.75 31.1875 C9.52495471 28.44581824 -2.949583 28.80213885 -11.0625 31.75 C-19.03662138 35.77221995 -23.39105068 41.87195387 -26.25 50.1875 C-29.44649733 60.24895805 -27.52705868 71.81373726 -23.25 81.1875 C-19.73853032 87.30005833 -13.36903976 89.90318951 -7.0625 92.5 C6.09942061 94.87346109 17.09283444 92.3228503 28.75 86.1875 C29.41 86.1875 30.07 86.1875 30.75 86.1875 C30.75 96.0875 30.75 105.9875 30.75 116.1875 C15.71614917 121.96975032 15.71614917 121.96975032 8.9375 123 C7.90979492 123.18079102 7.90979492 123.18079102 6.86132812 123.36523438 C-10.27868981 126.19762638 -28.73031619 122.25644796 -43 112.4375 C-55.50150269 102.77398211 -63.01420355 90.3448672 -65.81640625 74.75 C-67.87562896 57.83098101 -65.59564044 39.2066076 -55.5 25 C-54.44312877 23.70707631 -53.35786277 22.43700732 -52.25 21.1875 C-51.60289062 20.44757813 -50.95578125 19.70765625 -50.2890625 18.9453125 C-36.57366116 4.23962948 -19.41107771 0.01049247 0 0 Z " fill="#00145B" transform="translate(454.25,60.8125)"/>
<path d="M0 0 C12.21 0 24.42 0 37 0 C37.03738281 6.00574219 37.07476562 12.01148437 37.11328125 18.19921875 C37.14355824 22.00458597 37.17470431 25.80990626 37.20898438 29.61523438 C37.26330893 35.65484254 37.31441895 41.69435787 37.34643555 47.73413086 C37.37245027 52.60369719 37.41283984 57.47295178 37.46318626 62.34232521 C37.47986735 64.19980809 37.49137389 66.0573449 37.49761391 67.9148922 C37.50724149 70.51740552 37.53528436 73.11911908 37.56762695 75.72143555 C37.56619186 76.4889212 37.56475677 77.25640686 37.5632782 78.04714966 C37.64207955 82.53246583 38.2027517 85.44954258 41 89 C44.10085571 91.06723714 44.72931681 91.24497423 48.23046875 91.1953125 C48.95387451 91.19031738 49.67728027 91.18532227 50.42260742 91.18017578 C51.79122925 91.15286377 51.79122925 91.15286377 53.1875 91.125 C56.095625 91.08375 59.00375 91.0425 62 91 C62 99.58 62 108.16 62 117 C44.03309706 121.39190961 30.12817079 124.23128415 13 116 C9.34649383 113.46534695 7.05889191 111.01178649 4.8125 107.1875 C4.32394531 106.37667969 3.83539063 105.56585938 3.33203125 104.73046875 C0.18182915 98.27301634 -0.28594189 92.55390283 -0.22705078 85.48461914 C-0.22734283 84.55700775 -0.22763489 83.62939636 -0.22793579 82.67367554 C-0.22654967 79.62740513 -0.21102231 76.58138359 -0.1953125 73.53515625 C-0.19157982 71.41523879 -0.18873405 69.29531959 -0.18673706 67.17539978 C-0.1791207 61.61053662 -0.15948937 56.04577875 -0.1373291 50.48095703 C-0.11682761 44.79656397 -0.10772615 39.1121538 -0.09765625 33.42773438 C-0.07624158 22.28510267 -0.04107571 11.14257659 0 0 Z " fill="#00145B" transform="translate(218,63)"/>
<path d="M0 0 C4.73342773 3.25552344 7.67739087 7.56094344 8.7890625 13.23046875 C8.99985431 19.88901012 7.22294651 25.21825204 2.7890625 30.23046875 C-3.4621138 35.06918687 -10.51335779 36.19954889 -18.2109375 35.23046875 C-24.75212412 33.03429611 -29.36216278 29.94155383 -33.2109375 24.23046875 C-35.07696488 18.63238661 -35.06992364 12.55784237 -32.7109375 7.10546875 C-32.2159375 6.15671875 -31.7209375 5.20796875 -31.2109375 4.23046875 C-30.5509375 4.23046875 -29.8909375 4.23046875 -29.2109375 4.23046875 C-29.2109375 3.57046875 -29.2109375 2.91046875 -29.2109375 2.23046875 C-19.37980426 -3.78859242 -10.45941989 -5.77143289 0 0 Z " fill="#FF860B" transform="translate(248.2109375,20.76953125)"/>
</svg>
