<svg width="16" height="16" viewBox="0 0 16 16" fill="none" xmlns="http://www.w3.org/2000/svg">
<path d="M8.70005 3.8C8.70005 5.218 7.77705 6.43 6.50005 6.85V14C6.50005 14.828 5.82805 15.5 5.00005 15.5C4.17205 15.5 3.50005 14.828 3.50005 14V6.85C2.22305 6.43 1.30005 5.218 1.30005 3.8C1.30005 2.382 2.22305 1.23 3.50005 0.81V3.3C3.50005 4.128 4.17205 4.8 5.00005 4.8C5.82805 4.8 6.50005 4.128 6.50005 3.3V0.81C7.77705 1.23 8.70005 2.382 8.70005 3.8ZM12 7.25V2.5V7.25ZM13 0.5H11L11.5 2.5H12.5L13 0.5Z" fill="white" stroke="#383838" stroke-miterlimit="1" stroke-linejoin="round"/>
<path d="M13.5 8.6L12 7.25L10.5 8.6V14C10.5 14.828 11.172 15.5 12 15.5C12.828 15.5 13.5 14.828 13.5 14V8.6Z" fill="#F3B8B8" stroke="#E42D2C" stroke-miterlimit="1" stroke-linejoin="round"/>
</svg>
