<svg width="16" height="16" viewBox="0 0 16 16" fill="none" xmlns="http://www.w3.org/2000/svg">
<path d="M9.59075 4.45445H1.40894V1.3999H9.59075V4.45445ZM9.59075 4.45445H1.40894V12.5999H9.59075V4.45445Z" fill="white"/>
<path d="M8 4H6V3H8V4Z" fill="#E42D2C"/>
<path d="M4 11C4.55228 11 5 10.5523 5 10C5 9.44772 4.55228 9 4 9C3.44772 9 3 9.44772 3 10C3 10.5523 3.44772 11 4 11Z" fill="#383838"/>
<path d="M8 11H7V14H8V11Z" fill="#E42D2C"/>
<path fill-rule="evenodd" clip-rule="evenodd" d="M6 10.6579L6.57065 10H8.42935L9 10.6579V14.3421L8.42935 15H6.57065L6 14.3421V10.6579ZM7 11V14H8V11H7Z" fill="#E42D2C"/>
<path d="M11 10H10V14H11V10Z" fill="#E42D2C"/>
<path fill-rule="evenodd" clip-rule="evenodd" d="M9 9.55556L9.57065 9H11.4293L12 9.55556V14.4444L11.4293 15H9.57065L9 14.4444V9.55556ZM10 10V14H11V10H10Z" fill="#E42D2C"/>
<path d="M14 8H13V14H14V8Z" fill="#E42D2C"/>
<path fill-rule="evenodd" clip-rule="evenodd" d="M12 7.57143L12.5706 7H14.4293L15 7.57143V14.4286L14.4293 15H12.5706L12 14.4286V7.57143ZM13 8V14H14V8H13Z" fill="#E42D2C"/>
<path fill-rule="evenodd" clip-rule="evenodd" d="M1.40909 1L1 1.4V12.6L1.40909 13H5V12H2V6H9V8H10V1.4L9.59091 1H1.40909ZM2 5H9V2H2V5Z" fill="#383838"/>
</svg>
