<?xml version="1.0" encoding="UTF-8"?>
<svg id="Ebene_1" data-name="Ebene 1" xmlns="http://www.w3.org/2000/svg" width="32" height="32" viewBox="0 0 80 80">
  <defs>
    <style>
      .cls-1 {
        fill: #00305d;
      }

      .cls-2 {
        fill: #62bfdc;
      }
    </style>
  </defs>
  <path class="cls-2" d="M24.58,62.01c-11.9,0-21.58-10.02-21.58-22.33s9.68-22.33,21.58-22.33c1.33,0,2.4,1.08,2.4,2.4s-1.07,2.4-2.4,2.4c-9.25,0-16.78,7.86-16.78,17.53s7.53,17.52,16.78,17.52c1.33,0,2.4,1.08,2.4,2.4s-1.07,2.4-2.4,2.4Z"/>
  <path class="cls-1" d="M55.77,79h0c-2.36,0-4.58-.93-6.25-2.61-2.85-2.87-3.34-7.25-1.45-10.63l-17.89-18.02c-1.28.72-2.75,1.13-4.31,1.13-4.87,0-8.83-3.98-8.83-8.88s3.96-8.88,8.83-8.88c1.57,0,3.04.41,4.31,1.13l17.89-18.02c-1.89-3.38-1.4-7.75,1.45-10.62h0c1.67-1.68,3.89-2.61,6.25-2.61,2.36,0,4.58.93,6.25,2.61,3.44,3.46,3.44,9.09,0,12.55-1.67,1.68-3.89,2.61-6.25,2.61h0c-1.54,0-3.01-.39-4.32-1.13l-17.89,18.02c.34.61.61,1.26.8,1.94h25.29c.4-1.43,1.15-2.74,2.21-3.83,1.66-1.69,3.87-2.63,6.23-2.65h.06c4.84,0,8.8,3.94,8.83,8.82.03,4.9-3.9,8.91-8.77,8.94h-.06c-2.34,0-4.54-.91-6.21-2.56-1.11-1.1-1.89-2.44-2.3-3.91h-25.29c-.19.68-.46,1.34-.8,1.94l17.89,18.02c1.3-.74,2.78-1.13,4.31-1.13,2.36,0,4.58.93,6.25,2.61h0c3.44,3.46,3.44,9.09,0,12.55-1.67,1.68-3.89,2.61-6.25,2.61ZM55.77,66.04c-1.07,0-2.09.42-2.85,1.19-1.58,1.59-1.58,4.18,0,5.78.76.77,1.77,1.19,2.85,1.19h0c1.08,0,2.09-.42,2.85-1.19,1.58-1.59,1.58-4.19,0-5.78-.76-.77-1.77-1.19-2.85-1.19ZM25.87,35.92c-2.22,0-4.03,1.83-4.03,4.08s1.81,4.08,4.03,4.08,4.03-1.83,4.03-4.08-1.81-4.08-4.03-4.08ZM68.17,35.92s-.02,0-.03,0h0c-1.07,0-2.08.44-2.83,1.21-.76.78-1.17,1.8-1.17,2.9,0,1.09.44,2.11,1.21,2.88.77.76,1.76,1.19,2.85,1.17,2.22-.02,4.02-1.86,4-4.11-.02-2.24-1.82-4.05-4.03-4.05ZM68.12,33.52h.01-.01ZM55.77,5.8c-1.07,0-2.09.42-2.85,1.19,0,0,0,0,0,0-1.58,1.59-1.58,4.18,0,5.78.76.77,1.77,1.19,2.85,1.19h0c1.07,0,2.09-.42,2.85-1.19,1.58-1.59,1.58-4.18,0-5.78-.76-.77-1.77-1.19-2.85-1.19ZM51.22,5.3h.01-.01Z"/>
</svg>