<svg xmlns="http://www.w3.org/2000/svg" height="24" viewBox="0 -960 960 960" width="24" class="injected-svg _path-fill-neutral-700_vyah2_319" data-src="data:image/svg+xml,%3csvg%20xmlns='http://www.w3.org/2000/svg'%20height='24'%20viewBox='0%20-960%20960%20960'%20width='24'%3e%3cpath%20d='M666-440%20440-666l226-226%20226%20226-226%20226Zm-546-80v-320h320v320H120Zm400%20400v-320h320v320H520Zm-400%200v-320h320v320H120Zm80-480h160v-160H200v160Zm467%2048%20113-113-113-113-113%20113%20113%20113Zm-67%20352h160v-160H600v160Zm-400%200h160v-160H200v160Zm160-400Zm194-65ZM360-360Zm240%200Z'/%3e%3c/svg%3e" xmlns:xlink="http://www.w3.org/1999/xlink"><path d="M666-440 440-666l226-226 226 226-226 226Zm-546-80v-320h320v320H120Zm400 400v-320h320v320H520Zm-400 0v-320h320v320H120Zm80-480h160v-160H200v160Zm467 48 113-113-113-113-113 113 113 113Zm-67 352h160v-160H600v160Zm-400 0h160v-160H200v160Zm160-400Zm194-65ZM360-360Zm240 0Z"></path></svg>
