<?xml version="1.0" encoding="UTF-8"?>
<!DOCTYPE svg PUBLIC "-//W3C//DTD SVG 1.1//EN" "http://www.w3.org/Graphics/SVG/1.1/DTD/svg11.dtd">
<svg version="1.1" id="Layer_1" xmlns="http://www.w3.org/2000/svg" xmlns:xlink="http://www.w3.org/1999/xlink" x="0px" y="0px" width="16px" height="16px" viewBox="0 0 16 16" enable-background="new 0 0 16 16" xml:space="preserve">
  <g id="icon">
    <path d="M10.65,15.117c-0.167,0,-0.323,-0.09,-0.406,-0.236l-0.74,-1.273c-0.489,0.131,-0.993,0.197,-1.503,0.197c-0.509,0,-1.013,-0.066,-1.5,-0.196l-0.692,1.26c-0.082,0.151,-0.239,0.244,-0.411,0.244c-0.082,0,-0.162,-0.022,-0.233,-0.063l-1.786,-1.032c-0.221,-0.128,-0.298,-0.403,-0.177,-0.627l0.704,-1.282c-0.727,-0.725,-1.245,-1.622,-1.508,-2.61H0.967C0.71,9.5,0.5,9.29,0.5,9.033V6.967C0.5,6.71,0.71,6.5,0.967,6.5h1.429c0.263,-0.987,0.78,-1.884,1.506,-2.608l-0.697,-1.228c-0.124,-0.222,-0.046,-0.505,0.174,-0.632L5.166,0.999c0.071,-0.041,0.152,-0.063,0.234,-0.063c0.169,0,0.326,0.092,0.408,0.24l0.69,1.215c0.488,-0.131,0.992,-0.197,1.502,-0.197c0.511,0,1.016,0.066,1.505,0.198l0.738,-1.228c0.084,-0.142,0.238,-0.231,0.403,-0.231c0.082,0,0.163,0.022,0.234,0.063l1.786,1.032c0.109,0.063,0.186,0.164,0.218,0.285c0.032,0.121,0.015,0.248,-0.049,0.356L12.1,3.894c0.725,0.725,1.242,1.62,1.504,2.606h1.429c0.258,0,0.467,0.21,0.467,0.467v2.066c0,0.258,-0.21,0.467,-0.467,0.467h-1.429c-0.263,0.987,-0.78,1.883,-1.505,2.607l0.744,1.278c0.127,0.223,0.05,0.508,-0.172,0.636l-1.786,1.033C10.812,15.095,10.731,15.117,10.65,15.117zM8,5.5c-1.379,0,-2.5,1.121,-2.5,2.5c0,1.378,1.121,2.5,2.5,2.5s2.5,-1.121,2.5,-2.5C10.5,6.621,9.379,5.5,8,5.5z" fill="#FFFFFF" stroke="#383838" stroke-width="1" stroke-miterlimit="5"/>
  </g>
</svg>
