<svg xmlns="http://www.w3.org/2000/svg" height="24" viewBox="0 -960 960 960" width="24" class="injected-svg _path-fill-neutral-700_vyah2_319" data-src="data:image/svg+xml,%3csvg%20xmlns='http://www.w3.org/2000/svg'%20height='24'%20viewBox='0%20-960%20960%20960'%20width='24'%3e%3cpath%20d='M480-440q-50%200-85-35t-35-85q0-50%2035-85t85-35q50%200%2085%2035t35%2085q0%2050-35%2085t-85%2035ZM240-40v-309q-38-42-59-96t-21-115q0-134%2093-227t227-93q134%200%20227%2093t93%20227q0%2061-21%20115t-59%2096v309l-240-80-240%2080Zm240-280q100%200%20170-70t70-170q0-100-70-170t-170-70q-100%200-170%2070t-70%20170q0%20100%2070%20170t170%2070ZM320-159l160-41%20160%2041v-124q-35%2020-75.5%2031.5T480-240q-44%200-84.5-11.5T320-283v124Zm160-62Z'/%3e%3c/svg%3e" xmlns:xlink="http://www.w3.org/1999/xlink"><path d="M480-440q-50 0-85-35t-35-85q0-50 35-85t85-35q50 0 85 35t35 85q0 50-35 85t-85 35ZM240-40v-309q-38-42-59-96t-21-115q0-134 93-227t227-93q134 0 227 93t93 227q0 61-21 115t-59 96v309l-240-80-240 80Zm240-280q100 0 170-70t70-170q0-100-70-170t-170-70q-100 0-170 70t-70 170q0 100 70 170t170 70ZM320-159l160-41 160 41v-124q-35 20-75.5 31.5T480-240q-44 0-84.5-11.5T320-283v124Zm160-62Z"></path></svg>
