<?xml version="1.0" encoding="UTF-8"?>
<!DOCTYPE svg PUBLIC "-//W3C//DTD SVG 1.1//EN" "http://www.w3.org/Graphics/SVG/1.1/DTD/svg11.dtd">
<svg version="1.1" id="Layer_1" xmlns="http://www.w3.org/2000/svg" xmlns:xlink="http://www.w3.org/1999/xlink" x="0px" y="0px" width="16px" height="16px" viewBox="0 0 16 16" enable-background="new 0 0 16 16" xml:space="preserve">
  <g id="icon">
    <path d="M15.427,10.186c0,0,-3.234,-3.172,-4.344,-4.276c0.245,-0.59,0.35,-1.253,0.272,-1.947C11.153,2.181,9.733,0.754,7.95,0.532C5.645,0.244,3.669,1.939,3.511,4.133C3.836,4.047,4.178,4,4.533,4c0.396,0,0.789,0.06,1.164,0.176c-0.142,-0.178,-0.228,-0.403,-0.228,-0.648c0,-0.574,0.466,-1.039,1.041,-1.039c0.575,0,1.041,0.465,1.041,1.039c0,0.553,-0.433,1.004,-0.98,1.036l0.814,0.437c0.04,-0.001,0.081,-0.002,0.122,-0.002c2.186,0,3.899,1.736,3.899,3.952c0,0.321,-0.038,0.634,-0.108,0.935h0.351v1.306h1.309V12.5H15.5v-2.138C15.5,10.296,15.474,10.233,15.427,10.186z" fill="#FFFFFF"/>
    <path d="M16,10.362V13h-3.541v-1.306h-1.101c-0.068,-0.075,-0.138,-0.148,-0.208,-0.218v-1.088h-0.001c0.119,-0.317,0.196,-0.653,0.232,-1h0.769v1.306h1.309V12H15v-1.533c-0.484,-0.475,-3.264,-3.203,-4.27,-4.203l-0.238,-0.237l0.129,-0.31c0.224,-0.538,0.303,-1.109,0.237,-1.699c-0.174,-1.54,-1.423,-2.798,-2.969,-2.99c-1.056,-0.131,-2.093,0.211,-2.847,0.939c-0.577,0.557,-0.93,1.286,-1.018,2.066c-0.359,0.046,-0.702,0.138,-1.021,0.273c0.029,-1.153,0.504,-2.247,1.345,-3.058c0.973,-0.94,2.309,-1.382,3.666,-1.212c1.999,0.249,3.613,1.877,3.839,3.87c0.072,0.635,0.007,1.276,-0.188,1.875c1.256,1.244,4.084,4.018,4.114,4.048C15.923,9.975,16,10.163,16,10.362zM6.377,4.46c-0.408,-0.219,-0.857,-0.362,-1.32,-0.424c-0.056,-0.159,-0.088,-0.329,-0.088,-0.507c0,-0.849,0.691,-1.539,1.541,-1.539s1.541,0.691,1.541,1.539c0,0.601,-0.347,1.121,-0.851,1.374L6.377,4.46zM6.51,4.068c0.298,0,0.541,-0.242,0.541,-0.539s-0.243,-0.539,-0.541,-0.539s-0.541,0.242,-0.541,0.539S6.212,4.068,6.51,4.068z" fill="#ED8730"/>
    <path d="M9.906,8.952c0,1.354,-1.025,2.452,-2.399,2.452s-2.399,-1.098,-2.399,-2.452S6.133,6.5,7.507,6.5S9.906,7.598,9.906,8.952zM11.535,16c0,-2.364,-1.805,-4.587,-4.032,-4.587S3.47,13.636,3.47,16M2.066,15H0.496c0,-2.142,1.482,-4.168,3.417,-4.529c0.092,0.229,0.202,0.449,0.334,0.656c-0.255,0.212,-0.496,0.45,-0.721,0.713C2.764,12.728,2.256,13.843,2.066,15zM3.851,10.307c-0.149,-0.426,-0.229,-0.883,-0.229,-1.355c0,-1.401,0.683,-2.61,1.736,-3.31C5.103,5.55,4.826,5.5,4.533,5.5c-1.374,0,-2.399,1.098,-2.399,2.452C2.135,9.07,2.834,10.012,3.851,10.307z" fill="#FFFFFF"/>
    <path d="M12.035,16h-1c0,-2.177,-1.651,-4.087,-3.532,-4.087S3.97,13.823,3.97,16h-1c0,-1.263,0.474,-2.54,1.301,-3.505c0.437,-0.51,0.942,-0.905,1.489,-1.173c-0.703,-0.534,-1.151,-1.389,-1.151,-2.371C4.609,7.296,5.882,6,7.507,6s2.899,1.296,2.899,2.952c0,0.983,-0.45,1.84,-1.155,2.374c0.544,0.268,1.047,0.662,1.482,1.169C11.56,13.46,12.035,14.737,12.035,16zM7.507,7c-1.065,0,-1.899,0.857,-1.899,1.952s0.834,1.952,1.899,1.952s1.899,-0.857,1.899,-1.952S8.572,7,7.507,7zM4.138,10.942c-0.214,-0.379,-0.365,-0.796,-0.446,-1.235c-0.634,-0.313,-1.062,-0.973,-1.062,-1.755C2.63,6.857,3.466,6,4.533,6c0.114,0,0.224,0.012,0.332,0.03c0.304,-0.284,0.654,-0.517,1.038,-0.69C5.498,5.123,5.032,5,4.533,5C2.91,5,1.639,6.296,1.639,7.952c0,0.981,0.447,1.837,1.149,2.37c-0.546,0.268,-1.05,0.662,-1.486,1.171C0.474,12.458,0,13.736,0,15h0.991C0.991,12.975,2.422,11.182,4.138,10.942z" fill="#383838"/>
  </g>
</svg>
